<?xml version="1.0" encoding="utf-8"?>
<!-- Generator: Adobe Illustrator 21.0.0, SVG Export Plug-In . SVG Version: 6.00 Build 0)  -->
<svg version="1.1" id="Layer_1" xmlns="http://www.w3.org/2000/svg" xmlns:xlink="http://www.w3.org/1999/xlink" x="0px" y="0px"
	 viewBox="0 0 1745.9 332.3" style="enable-background:new 0 0 1745.9 332.3;" xml:space="preserve">
<style type="text/css">
	.st0{fill:url(#SVGID_1_);}
	.st1{fill:url(#SVGID_2_);}
	.st2{fill:url(#SVGID_3_);}
	.st3{fill:url(#SVGID_4_);}
</style>
<linearGradient id="SVGID_1_" gradientUnits="userSpaceOnUse" x1="152.8208" y1="0" x2="152.8208" y2="141.9848">
	<stop  offset="0" style="stop-color:#E0EBF7"/>
	<stop  offset="0.65" style="stop-color:#E0EBF7;stop-opacity:0.5"/>
	<stop  offset="1" style="stop-color:#D8E9F7;stop-opacity:0"/>
</linearGradient>
<path class="st0" d="M277.7,86.1c-0.3,0-0.6,0-0.9,0c-4.2-21.7-23.2-38-46.1-38c-3.1,0-6.1,0.3-9,0.9c-1.8-13.7-13.5-24.3-27.7-24.3
	c-7,0-13.4,2.6-18.3,6.8C163.1,12.6,141.4,0,116.8,0C86.6,0,60.9,18.8,50.6,45.2c-0.7,0-1.5-0.1-2.2-0.1C21.7,45.2,0,66.8,0,93.6
	C0,120.3,21.7,142,48.4,142h229.3h0c15.4,0,27.9-12.5,27.9-27.9C305.6,98.6,293.1,86.1,277.7,86.1 M183.6,95.1
	c0.1-0.3,0.2-0.7,0.3-1c0,0.3,0,0.7,0,1H183.6z"/>
<linearGradient id="SVGID_2_" gradientUnits="userSpaceOnUse" x1="1550.2046" y1="150.4782" x2="1550.2046" y2="332.2797">
	<stop  offset="0" style="stop-color:#E0EBF7"/>
	<stop  offset="0.65" style="stop-color:#E0EBF7;stop-opacity:0.5"/>
	<stop  offset="1" style="stop-color:#D8E9F7;stop-opacity:0"/>
</linearGradient>
<path class="st1" d="M1390.3,260.8c-19.7,0-35.8,16-35.8,35.8c0,19.8,16,35.8,35.8,35.8h0h293.6c34.2,0,62-27.8,62-62
	c0-34.2-27.7-62-62-62c-0.9,0-1.9,0-2.8,0.1c-13.2-33.9-46.1-57.9-84.7-57.9c-31.5,0-59.3,16.1-75.6,40.5
	c-6.3-5.4-14.4-8.8-23.4-8.8c-18.2,0-33.1,13.5-35.4,31.1c-3.7-0.7-7.6-1.1-11.6-1.1c-29.3,0-53.7,21-59,48.7
	C1391,260.8,1390.7,260.8,1390.3,260.8 M1510.4,272.2c0-0.4,0-0.9,0-1.3c0.1,0.4,0.3,0.9,0.4,1.3H1510.4z"/>
<linearGradient id="SVGID_3_" gradientUnits="userSpaceOnUse" x1="611.6166" y1="185.4128" x2="611.6166" y2="277.3789">
	<stop  offset="0" style="stop-color:#E0EBF7"/>
	<stop  offset="0.65" style="stop-color:#E0EBF7;stop-opacity:0.5"/>
	<stop  offset="1" style="stop-color:#D8E9F7;stop-opacity:0"/>
</linearGradient>
<path class="st2" d="M679.8,232c-2.5,0-4.8,0.4-7,1.1c-5.1-9.2-14.8-15.4-26.1-15.4c-2,0-4,0.2-5.9,0.6
	c-3.7-18.7-20.2-32.8-40.1-32.8c-20.2,0-37,14.7-40.3,33.9c-3.1-1.1-6.4-1.7-9.9-1.7c-16.4,0-29.7,13.4-29.7,29.9
	s13.3,29.9,29.7,29.9h129.2c12.5,0,22.6-10.2,22.6-22.7C702.4,242.2,692.3,232,679.8,232z"/>
<linearGradient id="SVGID_4_" gradientUnits="userSpaceOnUse" x1="1306.3293" y1="6.3126" x2="1306.3293" y2="98.3789">
	<stop  offset="0" style="stop-color:#E0EBF7"/>
	<stop  offset="0.65" style="stop-color:#E0EBF7;stop-opacity:0.5"/>
	<stop  offset="1" style="stop-color:#D8E9F7;stop-opacity:0"/>
</linearGradient>
<path class="st3" d="M1362.2,39.5c-3.9,0-7.6,0.8-11,2.1c-4.8-20.3-22.9-35.3-44.7-35.3c-19.7,0-36.4,12.4-43,29.7
	c-3.3-1.2-6.9-1.8-10.6-1.8c-17.6,0-31.9,14.4-31.9,32.1s14.3,32.1,31.9,32.1h109.2c16.2,0,29.3-13.3,29.3-29.4
	C1391.5,52.8,1378.4,39.5,1362.2,39.5z"/>
</svg>
