<?xml version="1.0" encoding="utf-8"?>
<!-- Generator: Adobe Illustrator 21.0.0, SVG Export Plug-In . SVG Version: 6.00 Build 0)  -->
<svg version="1.1" id="Layer_1" xmlns="http://www.w3.org/2000/svg" xmlns:xlink="http://www.w3.org/1999/xlink" x="0px" y="0px"
	 viewBox="0 0 230.7 162.6" style="enable-background:new 0 0 230.7 162.6;" xml:space="preserve">
<style type="text/css">
	.st0{opacity:0.2;fill:#FFFFFF;}
</style>
<path class="st0" d="M86.4,67.6c14.3,9.7,21.2,25.2,21.2,41.2c0,31.5-22.9,53.8-54.4,53.8C25.2,162.6,0,143.7,0,109.3
	c0-16,5.7-29.8,14.3-42.4L60.7,0h53.8L86.4,67.6z M202.7,67.6c14.3,9.7,21.2,25.2,21.2,41.2c0,31.5-22.9,53.8-54.4,53.8
	c-28.1,0-53.2-18.9-53.2-53.2c0-16,5.7-29.8,14.3-42.4l46.4-67h53.8L202.7,67.6z"/>
</svg>
