<?xml version="1.0" encoding="utf-8"?>
<!-- Generator: Adobe Illustrator 21.0.0, SVG Export Plug-In . SVG Version: 6.00 Build 0)  -->
<svg version="1.1" id="Layer_1" xmlns="http://www.w3.org/2000/svg" xmlns:xlink="http://www.w3.org/1999/xlink" x="0px" y="0px"
	 viewBox="0 0 231.3 162.6" style="enable-background:new 0 0 231.3 162.6;" xml:space="preserve">
<style type="text/css">
	.st0{opacity:0.2;fill:#FFFFFF;}
</style>
<path class="st0" d="M114.5,53.2c0,16-5.7,29.8-14.3,42.4l-46.4,67H0L28.1,95C13.7,85.3,6.9,69.8,6.9,53.8C6.9,22.3,29.8,0,61.3,0
	C89.3,0,114.5,18.9,114.5,53.2z M231.3,53.2c0,16-5.7,29.8-14.3,42.4l-46.4,67h-53.8L144.8,95c-14.3-9.7-21.2-25.2-21.2-41.2
	C123.7,22.3,146.6,0,178,0C206.1,0,231.3,18.9,231.3,53.2z"/>
</svg>
